<?xml version="1.0" encoding="UTF-8"?>
<svg width="48" height="48" version="1.1" viewBox="0 0 12.7 12.7" xmlns="http://www.w3.org/2000/svg">
 <g stroke-width="0">
  <rect x="1.0583" y="1.0583" width="10.583" height="10.583" rx="1.5875" ry="1.5875" fill="#31363b"/>
  <g fill="#7f8c8d">
   <rect x="2.3812" y="2.3812" width="2.1167" height="2.1167" rx=".70556" ry=".70556"/>
   <rect x="5.2917" y="2.3812" width="2.1167" height="2.1167" rx=".70556" ry=".70556"/>
   <rect x="8.2021" y="2.3812" width="2.1167" height="2.1167" rx=".70556" ry=".70556"/>
  </g>
  <g fill="#eff0f1">
   <rect x="2.3813" y="5.2917" width="2.1167" height="2.1167" rx=".70556" ry=".70556"/>
   <rect x="5.2917" y="5.2917" width="2.1167" height="2.1167" rx=".70556" ry=".70556"/>
   <rect x="8.2021" y="5.2917" width="2.1167" height="2.1167" rx=".70556" ry=".70556"/>
  </g>
  <rect x="2.3813" y="8.2021" width="2.1167" height="2.1167" rx=".70556" ry=".70556" fill="#7f8c8d"/>
  <rect x="5.2917" y="8.2021" width="2.1167" height="2.1167" rx=".70556" ry=".70556" fill="#eff0f1"/>
  <rect x="8.2021" y="8.2021" width="2.1167" height="2.1167" rx=".70556" ry=".70556" fill="#7f8c8d"/>
 </g>
</svg>
