<?xml version="1.0" encoding="UTF-8"?>
<svg width="512" height="512" version="1.1" viewBox="0 0 512 512" xml:space="preserve" xmlns="http://www.w3.org/2000/svg"><defs><style id="current-color-scheme" type="text/css">.ColorScheme-Text {
        color:#eff0f1;
      }</style><style type="text/css">.ColorScheme-Text { color: #fcfcfc; } </style></defs><g fill="#8839ef"><rect x="64" y="64" width="96" height="96"/><rect x="208" y="64" width="96" height="96"/><rect x="352" y="64" width="96" height="96"/><rect x="64" y="208" width="96" height="96"/><rect x="64" y="352" width="96" height="96"/><path class="ColorScheme-Text" d="m328.06 208c-4.7844 0-9.4188 0.39-14.068 0.945-4.5594 0.54-9.2088 1.305-13.588 2.3385-1.41 0.33-2.7746 1.005-4.2144 1.41-1.26 0.345-2.5047 0.555-3.7496 0.945-1.5748 0.495-3.2096 0.885-4.6944 1.41-1.6048 0.57-3.1046 1.245-4.6944 1.8735-3.0896 1.245-5.9542 2.73-8.909 4.2135-1.065 0.54-2.2347 0.84-3.2846 1.41-3.4496 1.8135-6.6141 3.9435-9.8388 6.087-1.23 0.825-2.5496 1.47-3.7494 2.3385-0.495 0.36-0.915 0.57-1.41 0.945-1.41 1.065-2.8647 2.127-4.2146 3.282-1.6047 1.335-3.1496 2.8035-4.6944 4.2135-0.48 0.45-0.93 0.96-1.41 1.41l-0.465 0.465c-0.24 0.24-0.225 0.705-0.465 0.945-3.1496 3.0585-6.5841 5.982-9.3738 9.3705-0.075 0.15 0.075 0.375 0 0.465-2.7147 3.2985-5.1444 6.717-7.4991 10.316-0.315 0.48-0.63 0.915-0.945 1.41-0.225 0.36-0.705 0.555-0.945 0.945-0.9 1.47-1.5148 3.135-2.3397 4.6935-0.27 0.495-0.675 0.915-0.945 1.41-1.125 2.1885-2.2497 4.347-3.2846 6.567-0.06 0.15 0.06 0.345 0 0.465-1.7548 3.792-3.3297 7.704-4.6944 11.708-0.285 0.795-0.675 1.545-0.945 2.34-0.045 0.15 0.045 0.33 0 0.465-0.3 0.93-0.66 1.875-0.945 2.82-1.095 3.852-2.0997 7.7055-2.8197 11.709-0.51 2.8785-1.11 5.952-1.41 8.907-0.405 3.972-0.465 8.1255-0.465 12.188 0 6.057 0.54 11.994 1.41 17.812 0.09 0.615-0.105 1.275 0 1.8735 0.66 3.9885 1.7697 7.872 2.8197 11.71 0.39 1.44 0.96 2.7885 1.41 4.2135 0.6 1.9335 1.185 3.7335 1.8748 5.622 1.155 3.1785 2.3397 6.327 3.7496 9.369 0.75 1.59 1.5297 3.1485 2.3397 4.6935 2.2797 4.3785 4.7244 8.6205 7.499 12.654 0.24 0.36 0.69 0.585 0.945 0.945 2.9696 4.2135 5.9092 8.3955 9.3738 12.189 0.6 0.66 1.26 1.23 1.8747 1.875 0.6 0.63 1.26 1.26 1.8748 1.8735 3.2096 3.2085 6.7641 6.072 10.319 8.907 4.5894 3.657 9.4338 6.8805 14.533 9.834 0.18 0.15 0.285 0.36 0.465 0.465 0.795 0.45 1.5448 0.975 2.3397 1.41 4.7394 2.34 10.379 4.8735 14.068 6.567 1.6498 0.63 3.4647 0.855 5.1594 1.41 0.795 0.27 1.5448 0.69 2.3397 0.945 2.0397 0.615 4.0196 1.35 6.0892 1.8735 0.63 0.165 1.245 0.315 1.8748 0.465 4.3794 1.035 9.0288 1.8135 13.588 2.3385 4.6344 0.54 9.2688 0.945 14.068 0.945 5.0994 0 10.064-0.315 14.998-0.945 5.4742-0.72 10.214-1.8585 14.998-2.8185 25.467-6.537 47.424-21.32 63.277-41.23 0.42-0.525 1.005-0.87 1.41-1.41 0.135-0.18 0.33-0.3 0.465-0.465 0.21-0.27 0.27-0.66 0.465-0.945 9.3438-12.369 16.153-26.702 20.157-42.176 0.84-3.2535 1.7698-6.477 2.3397-9.8355 0.075-0.45-0.075-0.945 0-1.41 0.09-0.6 0.375-1.185 0.465-1.875 0.09-0.645 0.39-1.23 0.465-1.8735h-0.465c0.66-4.9335 1.41-9.8805 1.41-14.994 0-8.2755-0.75-16.551-2.3397-24.363-0.135-0.645-0.33-1.23-0.465-1.8735-0.69-3.1185-1.8597-6.3435-2.8197-9.372-0.045-0.15 0.045-0.33 0-0.465-0.18-0.57-0.27-0.84-0.465-1.41-0.585-1.785-1.215-3.8685-1.8747-5.622-0.18-0.48-0.27-0.96-0.465-1.41-0.645-1.635-1.6198-3.0885-2.3397-4.692-0.03 0 0.03-0.39 0-0.465-0.375-0.81-1.02-1.5435-1.41-2.3385-1.47-3.0435-2.9696-5.997-4.6944-8.9055-0.87-1.47-1.41-3.2535-2.3397-4.6935-0.36-0.54-1.035-0.87-1.41-1.41-1.005-1.485-2.2047-2.775-3.2846-4.2135-1.2-1.5-2.0998-3.2385-3.2847-4.6935-0.075-0.15 0.075-0.375 0-0.465-2.5796-3.1335-5.5492-6.042-8.4438-8.9055-1.395-1.38-2.7597-2.9085-4.2146-4.2135-0.42-0.375-0.975-0.57-1.41-0.945-3.1346-2.7285-6.4491-5.097-9.8388-7.494-0.825-0.57-1.5147-1.32-2.3397-1.875-1.05-0.69-2.2197-1.215-3.2846-1.8735-2.0247-1.26-3.9896-2.61-6.0892-3.7485-1.8447-1.005-3.7196-1.905-5.6242-2.8185-3.2096-1.53-6.4792-2.97-9.8388-4.2135-3.9894-1.485-8.009-2.6985-12.194-3.7485-3.6744-0.93-7.454-1.77-11.248-2.3385-5.9542-0.915-12.074-1.41-18.283-1.41m0 14.994c4.4844 0 8.774 0.405 13.123 0.945 2.6997 0.345 5.3244 0.87 7.964 1.41h0.465c2.4897 0.525 5.0694 1.185 7.4991 1.8735 1.44 0.405 2.8047 0.945 4.2146 1.41 2.5796 0.855 5.0092 1.7535 7.499 2.8185 2.9097 1.2 5.6844 2.292 8.444 3.747-0.465 0.15-0.945 0.315-1.41 0.465-0.705 0.255-1.6947 1.44-1.8747 1.8735-0.3 0.72 0.075 1.725 0 2.82 0.57 0.255 0.9 1.335 1.8747 1.8735 0.375 0.21 0.615-0.15 0.945 0 0.57 0.315 1.05 1.305 0.945 1.8735-0.165 0.825-1.32 0.33-1.8747 0.945 0.09 1.17-0.645 1.575-0.945 2.3385 0.18 0.495 0.855 0.36 0.945 0.945-0.105 0.645-1.185 0.735-0.945 1.41 1.08 0.84 2.2647-0.33 3.2846-0.465 2.2347-0.285 4.2446 0.615 5.6242-0.465-0.18-1.065 1.5148-1.38 1.41-2.3385-0.09-0.72-1.35-0.915-1.8747-1.41-0.285-0.27-0.6-0.885-0.945-1.41-0.39-0.6-0.96-1.305-1.41-1.875-0.585-0.78-1.8747-1.7535-1.8747-2.3385 0.015-0.675 0.78-0.945 0.945-1.875-0.18-0.855-1.7548 0-1.8748-0.945 0.03-0.285 0.315-0.765 0.465-0.945 2.2497 1.23 4.4694 2.6835 6.5692 4.2135 0.48 0.315 0.93 0.615 1.41 0.945 1.6197 1.215 3.1046 2.55 4.6944 3.7485-1.005 0.18-1.5148 1.35-2.3397 2.34-0.57 0.69-1.485 1.5135-2.3397 1.8735-0.42 0.18-1.02-0.24-1.41 0-0.555 0.375-0.765 1.44-1.41 1.875-0.465 0.315-1.8598 1.41-2.3397 1.41-0.57 0.015-1.47-0.6-1.8748-0.465-0.6 0.195-0.255 1.155-0.945 1.41-1.32 0.465-3.7496-1.035-4.2144 0.945 0.57 1.14 2.2947 0.765 3.2846 1.41 0.63 0.39 1.7098 2.145 1.8747 2.8185 0.15 0.57 0.225 2.685 0 3.2835-0.615 1.59-2.3847 1.455-4.2144 1.41-0.51-0.015-0.945 0-1.41 0-3.1046-0.21-6.1042-1.275-7.4991 0.945 0.105 1.6935 0.375 2.7435 0 4.212-0.27 1.08-1.455 1.875-1.41 2.82 0.03 0.48 0.825 1.23 0.945 1.8735 0.075 0.345-0.165 1.095 0 1.41 0.51 0.99 1.9048-0.15 2.8197 0 0.885 0.15 1.8897 1.8135 1.8747 2.8185-0.015 0.69-0.495 1.6785-0.945 2.3385-0.87 1.335-2.5047 1.155-3.7496 1.8735-1.05 0.585-1.26 1.7835-1.8747 2.8185-0.66 1.11-1.215 1.6635-0.945 3.2835-0.9 1.7685-1.8897 2.9085-3.7496 3.7485-0.555 0.255-1.38 0.585-1.8747 0.945-0.405 0.285-0.84 0.765-1.41 1.41-0.705 0.78-1.5 1.275-1.8748 1.875-0.285 0.465-0.15 1.26-0.465 1.8735-0.435 0.84-1.32 1.5-1.8747 2.3385-0.255 0.39-0.645 0.885-0.945 1.41-0.63 1.155-1.5148 2.2635-1.41 3.2835 0.105 0.99 1.335 1.02 1.41 1.8735 0.06 0.48-0.495 0.885-0.465 1.41 0.015 0.765 0.405 1.29 0.465 1.8735 0.15 1.485-0.66 1.8-0.945 2.82-0.135 0.48 0.12 1.02 0 1.41-0.24 0.75-1.395 1.47-1.41 2.34-0.015 0.63 0.885 1.455 0.945 2.3385 0.03 0.6-0.57 0.855-0.465 1.41 0.21 1.095 2.4297 2.43 3.2846 3.2835 1.125 1.125 2.3247 2.085 2.8197 3.285 0.405 1.005 0.615 2.517 1.41 3.282 0.585 0.555 1.5897 0.81 2.3397 1.41 0.705 0.54 1.6047 0.825 2.3397 1.41 1.215 0.96 2.7446 2.9535 4.6944 2.8185 1.02-0.15 2.1297-0.75 3.2846-0.945 1.185-0.21 2.5497-0.585 3.7496-0.465 0.915 0.15 1.8597 0.99 2.8196 0.945 1.005 0 2.1448-0.915 3.2847-1.41 1.9797-0.855 5.0844-2.2935 7.964-1.8735 2.1897 0.315 2.2347 3.2535 3.7496 4.2135 1.7697 0.15 3.2846-0.81 4.6944-0.465 1.05 0.255 2.2347 1.9785 2.3397 2.8185 0.105 0.87-0.81 1.815-0.945 2.3385-0.27 1.17-0.255 2.535-0.465 3.2835-0.165 0.57-0.48 1.29-0.465 1.875 0 0.525 0.87 2.1285 1.41 2.8185 0.66 0.84 1.5448 1.44 2.3397 2.3385 1.305 1.635 2.3247 3.5385 3.2846 5.6235 0.255 0.555-0.24 1.155 0 1.8735-0.435 3.3585-1.5447 5.6535-3.7496 9.3705-1.035 1.2-2.3697 2.25-2.3397 3.7485-0.075 3.5985 2.0398 5.892 1.8748 9.3705-0.36 4.677 0.36 4.992 0 7.4955 1.5748 0.795 0.465 3.4935 0 5.1585-0.675 1.9785-1.5 2.4285-1.8748 3.7485 1.065 0.465 2.5647 0.285 3.7496 0 0 0 1.44 6.012 1.41 6.087-12.104 11.95-27.282 20.811-44.064 25.773-8.249 1.9935-10.694 1.9935-14.533 2.8185-5.0092 0.825-10.244 1.41-15.463 1.41-3.6444 0-7.244-0.15-10.784-0.465-2.7296-0.27-5.3092-0.93-7.964-1.41-0.795-0.15-1.5597-0.3-2.3397-0.465-2.4447-0.825-5.2642-1.32-7.4991-1.8735-2.5496-0.72-5.0242-1.44-7.499-2.34 0.21-0.195 0.405-0.165 0.465-0.465 0.135-0.6 0.03-0.93 0-1.8735 0.225-0.975 1.2-0.87 1.41-1.8735-0.42-0.72-1.245-0.57-1.8747-0.945-0.615-0.36-1.02-1.11-0.945-1.875 1.05-0.435 2.9996 0.99 3.7494-0.465 0.375-0.69-0.51-2.1135 0-2.8185 0.345-0.465 2.5347-0.825 3.2847-0.945 1.065-0.18 2.2197-0.15 2.8196-0.465 0.66-0.435 1.5148-1.575 1.41-2.82-0.06-0.585-0.495-0.885-0.945-1.41-0.375-0.435-0.195-0.99-0.465-1.41-0.465-0.705-1.2-0.87-1.41-1.8735 1.44-0.285 3.5396 1.5285 5.6244 0.945 0.99-0.285 2.3547-2.82 2.8196-3.7485 0.15-0.285-0.15-0.6 0-0.945 0.18-0.39 0.885-0.735 0.945-0.945 0.15-0.54-0.12-1.065 0-1.41 0.36-1.02 1.275-1.125 1.8747-1.875 0.45-0.57 0.975-1.305 1.41-1.8735 0.465-0.615 0.63-1.335 0.945-1.875 0.3-1.8285-0.9-3.0885-0.465-4.692 0.48-1.8 2.9397-2.475 4.6944-3.2835 0.6-0.285 1.38-0.75 1.8748-0.945 1.2-0.42 2.6397-0.54 3.7496-0.945 1.8747-0.69 2.3547-2.5035 3.2846-4.2135 0.435-0.81 0.855-1.7685 0.945-2.3385 0.075-0.525-0.105-0.795 0-1.41 0.09-0.6 0.3-1.215 0.465-1.872 0.21-0.87 0.465-2.3085 0.465-3.2835 0-0.795-0.435-1.17-0.465-1.8735-0.135-2.595 0.915-3.27 1.8747-4.6935 0.48-0.705 0.6-1.365 0.945-1.875 1.6198-2.4135 4.4246-3.3885 4.2146-7.032-0.075-1.2-0.525-3.837-1.41-4.212-0.51-0.225-1.6048-0.165-2.3397-0.465-2.3697-0.885-4.1096-4.0335-6.5692-4.2135-0.525 0-0.825 0.465-1.41 0.465-0.975 0-2.2047-0.795-3.2846-0.945-0.69-0.15-1.9347 0.195-2.3397 0-0.63-0.3-0.435-1.5285-0.945-1.8735-0.405-0.27-1.26-0.225-1.8747-0.465-0.99-0.375-1.6798-0.84-2.8197-0.945-0.345-0.015-1.005 0-1.41 0-0.63-0.15-1.29-0.6-1.8747-0.945-0.72-0.435-1.11-0.78-1.41-1.41 0.66-2.1585-1.44-2.5035-1.8747-3.7485-0.21-0.585 0.195-1.35 0-1.8735-0.255-0.75-1.065-1.26-1.8748-1.875-1.455-1.11-2.6097-2.0835-4.6944-2.3385-0.915-0.15-2.1747 0-3.2846 0-1.17-0.15-2.4147-0.87-3.2846-1.875-0.84-0.975-1.14-1.8735-1.8748-2.3385-0.705-0.45-1.8597-0.465-2.3397-0.945-0.21-0.21-0.255-0.465-0.465-0.945-0.345-0.72-0.915-1.47-0.465-2.34-0.795-0.405-0.525 1.08-1.41 0.945-0.78-1.11-1.5148-1.725-3.2846-1.41-0.81 0.15-1.395 0.9-2.3397 0.945-0.78 0-1.32-0.795-2.3397-0.945-0.78-0.15-1.7998 0.54-2.3397 0.465-0.855-0.165-1.095-0.885-1.8748-1.41-0.57-0.375-1.5597-1.425-1.8747-1.41-1.005 0-1.8897 2.1435-3.2846 1.41-0.675-0.855 1.275-1.065 0.465-1.875-0.6-0.615-0.915 0.15-1.41 0.465-0.555 0.375-1.26 0.705-1.8748 0.945-1.38 0.51-2.2047 0.375-3.2846 0.945-0.99 0.51-1.305 1.32-1.8748 2.34-0.465 0.84-1.185 2.2935-1.8747 2.3385-0.84 0-1.5898-1.08-2.3397-1.41-2.2947-0.99-3.7196 0.45-5.6242 0.465-1.7698 0-4.3046-2.5635-4.2146-4.212 0.06-1.005 0.81-2.49 0.945-3.7485 0.09-0.99 0.93-1.905 0.945-2.8185 0.015-1.215-2.0248-2.205-2.8197-2.34-1.8747-0.345-4.4244 0.915-6.5691 0-0.405-0.675 0.705-1.215 0.945-1.8735 0.135-0.375-0.135-0.51 0-0.945 0.24-0.63 1.11-1.2 1.41-1.8735 0.225-0.51 0.24-1.23 0.465-1.875 0.255-0.735 0.885-1.365 0.945-1.8735 0.075-0.675-0.405-1.425-0.945-1.875-1.6647 0.15-2.8046 0-3.7496 0.465-2.1597 0.99-1.5897 3.9885-3.7496 4.6935-0.75 0.24-1.9947 0.315-2.8196 0.465-0.705 0.15-1.6048 0.48-2.3397 0.465-0.87-0.015-2.2947-0.855-2.8197-1.41-0.135-0.15-0.36-0.54-0.465-0.945 0.03-0.15-0.03-0.315 0-0.465 0.69-3.3435 1.395-6.657 2.3397-9.8355 0.045-0.15-0.045-0.33 0-0.465 0.63-2.0835 1.5447-4.0485 2.3397-6.087 0.195-0.15 0.285-0.345 0.465-0.465 1.155-0.795 2.3397-1.7835 3.7496-1.8735 0.855 0 2.4597 0.3 3.2846 0.465 0.75 0.15 1.23 0.885 1.8748 0.945 1.8447 0.15 2.2347-1.5435 3.7496-2.3385 1.5597 0.225 2.3397-0.15 3.7494 0 0.96 0.15 2.0698 1.35 2.8197 1.41 0.63 0 0.795-1.035 1.41-0.945 0.6 0.15 1.7847 1.6185 1.8747 2.3385 0.105 0.9-0.72 1.83-0.465 2.8185 0.945 0.96 2.8646 0.84 4.2144 1.41 0.885-0.72 0.135-1.77 0-2.8185-0.03-0.465 0.06-0.99 0-1.41-0.09-0.72-0.465-1.26-0.465-1.8735-0.015-2.8485 2.3097-4.4985 4.2144-5.6235 0.825-0.495 1.6198-1.035 2.3397-1.41 1.005-0.51 1.5-0.945 2.3397-1.41 1.5148-0.855 3.0297-1.38 4.2146-2.3385 0.555-1.29-0.06-2.9385 0-4.2135 0.555-0.33 0.825 0 1.41 0 0.915-0.195 1.35-1.365 1.8748-1.8735 0.3-0.3 1.035-0.645 1.41-0.945 0.915-0.72 1.08-1.56 1.8747-1.875 0.285-0.15 0.96-0.255 1.41-0.465 0.6-0.165 1.38-0.6 2.3397-0.945 0.63-0.21 2.0997-0.225 2.3397-0.465 0.3-0.3-0.09-1.425 0-1.8735 0.48-2.265 4.0794-2.52 6.0892-3.2835 1.41-0.54 2.6697-1.71 4.2144-1.41-0.3 1.08-1.6497 0.57-1.41 1.8735 0.345 1.815 2.6397-0.195 3.2847-0.465 1.215-0.51 3.5546-0.825 5.1592-1.41 1.41-0.51 3.6746-1.2 2.3397-2.8185-1.11 0-1.38 0.99-2.3397 1.41-0.66 0.15-0.84-0.405-1.41-0.465-0.54 0-0.855 0.57-1.41 0.465-0.555-0.15-1.32-1.23-1.41-1.8735-0.225-1.665 1.6498-2.04 2.3397-3.2835-0.45-1.515-2.4897-0.36-3.7496-0.945 0.135-0.9 0.825-1.7085 1.8748-1.8735 0.855-0.15 2.7746 0.15 3.2846 0.465 0.3 0.255 0 0.99 0.465 1.41 0.51 0.465 1.215 0.15 1.8748 0 0.24-1.14-1.5898-0.645-1.41-1.41 1.35-0.885 3.9746-0.24 5.6242-0.465 0.945-0.15 1.9648-0.93 2.8197-1.41 0.81-0.45 1.485-1.215 2.3397-0.465 0.24 0.81-0.48 0.99-0.945 1.41-1.5298 1.365-3.0297 3.1035-4.2146 4.692 0.735 0.72 2.0398 0.33 3.2847 0.465 0.48 0 0.9 0.375 1.41 0.465 0.6 0.15 1.41-0.18 1.8748 0 0.84 0.21 1.05 1.41 1.8747 1.41 1.365 0 1.245-1.875 0.465-2.8185 0.24-0.945 0.795-1.2 0.465-1.875-0.615-1.23-3.1646 0.21-3.2846-1.41-0.075-1.005 1.05-1.125 1.41-1.875-0.165-1.9335 1.5897-2.0235 1.41-3.7485-0.09-0.72-0.9-0.735-1.41-1.41-0.255-0.345-0.15-1.14-0.465-1.41-1.05-0.885-3.1496-0.66-3.2846-2.3385-0.06-0.99 0.15-1.725 0-2.8185-0.135-1.005-0.99-4.0185-1.8747-4.2135-1.125-0.24-1.9348 1.7085-3.2847 2.3385-0.735 0.345-2.0847 0.6-2.8196 0.465-0.48-0.15-1.335-0.48-1.41-1.41-0.09-1.05 0.75-1.23 0.945-2.337-0.165-0.66-0.765-0.435-1.41-0.945-0.735-0.555-1.365-1.7385-2.3397-1.8735-0.495 0-1.395 0.435-1.8747 0.465-0.9 0-1.5898-0.225-2.3397-0.465 0.315-0.15 0.615-0.36 0.945-0.465 1.8297-0.63 3.7496-0.885 5.6242-1.41 0.33-0.15 0.615-0.375 0.945-0.465 0.465 0.495 0.84 1.5435 1.41 1.8735 0.375 0.21 0.945-0.15 1.41 0 1.47 0.45 2.6097 1.275 4.2146 0.945 0.555-0.975-1.11-1.11-0.465-1.875 1.08 0.15 1.9797 0.6 2.8197 0.945 1.155-0.84 1.9197-0.99 1.8747-2.3385-0.015-0.69-0.93-0.945-1.41-1.41 0.945-0.165 1.8598-0.33 2.8197-0.465 0.075 0.255 0.315 0.45 0.465 0.465 0.57 0.15 2.4747-0.765 2.8196-0.945 0.06 0-0.09-0.405 0-0.465 3.7946-0.405 7.8141-0.465 11.714-0.465m-37.495 7.032c-0.345 0.645-0.705 1.185-1.41 1.41 0.18 0.975-1.26 1.5735-1.41 2.337-0.09 0.525-0.03 1.41 0 1.875 0.3 4.7835-3.7644 7.152-8.444 7.032-0.915 0.87-0.435 2.5485-0.945 3.7485-0.42 1.005-1.7997 1.9635-2.8196 1.8735-0.75 0-1.8748-1.185-1.8748-1.8735 0-0.855 1.215-1.365 0.465-2.34 0.105-0.66 1.5897-1.29 1.41-2.3385-0.18-1.11-1.44-0.285-2.8197-0.465-0.78-0.15-1.9947-0.555-2.8197-0.945 1.5148-1.005 3.0747-1.89 4.6944-2.82 1.41-0.84 2.7747-1.5735 4.2146-2.3385 3.7796-1.9035 7.829-3.657 11.714-5.1555m80.615 11.242c-0.405 0-0.6 0.27-0.945 0.465-0.765 0.465-0.81 1.185-1.41 1.41-0.81 0.315-1.7547 0.15-1.8747 0.945-0.09 0.615 0.495 0.825 0.465 1.41-0.3 0.735-0.795 0.99-0.945 1.8735 1.02 1.65 3.4346-0.15 4.6944-0.465 0.57-0.165 1.095 0 1.41-0.465 0.345-0.525 0.195-1.575 0.465-2.34 0.285-0.84 1.035-0.645 0.945-1.41-0.09-0.75-1.5898-1.53-2.8196-1.41m-109.68 11.71c0.915 0.24 2.9396 2.8935 0.945 3.7485-0.195 0.15-2.8047 0.54-3.2846 0.465-0.69-0.15-1.17-1.29-1.8748-1.41-1.38-0.24-3.2696 1.515-4.2144 0 0.24-0.885 1.29-0.645 2.3397-0.945 1.8747-0.51 4.4694-2.2935 6.0892-1.8735m3.7494 4.692c0.465 0 0.84 0.885 1.41 0.945 0.54 0 1.08-0.54 1.41-0.465 0.84 0.225 1.26 1.725 0.465 2.34-0.66 0-0.915-0.555-1.41-0.465-1.365 0.24-1.7998 2.8935-2.8197 2.8185-0.96-0.15-1.44-2.1135-0.465-2.8185 0.03-0.6-0.495-0.81-0.465-1.41 0.3-0.375 1.08-0.99 1.8747-0.945m-4.6944 0.465c0.285 0.015 0.36 0 0.465 0-0.135 1.065-0.585 1.365-1.41 1.875-1.425 0.855-2.3547 1.9185-2.8196 3.7485-0.135 0.54-1.6648 2.0085-2.3397 1.8735-1.5898-0.33 0.57-3.2985 0.945-3.7485 0.405-0.495 0.93-0.84 1.41-1.41 0.45-0.555 0.495-1.575 0.945-1.875 0.48-0.33 1.9797-0.495 2.8196-0.465m142.48 0.465c0.72 0.195 0.87 1.035 1.41 1.41 0.405 0.27 0.96 0.18 1.41 0.465 0.525 0.33 0.81 0.9 1.41 1.41 0.84 0.705 2.0997 1.32 3.2846 1.875 0.24 0.15 0.66 0.345 0.945 0.465 0.825 1.065 1.5598 2.1735 2.3397 3.2835 0.09 0.6 0.18 1.485 0.465 1.8735 0.78 1.065 1.9647 1.9785 2.8197 3.2835-0.015 1.245 0.54 1.995 1.41 2.3385 1.095 1.86 2.2347 3.7185 3.2846 5.622 0.435 0.87 0.525 1.9335 0.945 2.8185-0.315 0-0.645 0.15-0.945 0-0.99-1.74-6.1342-2.0835-6.5692 0.465-0.195 1.125 0.735 2.6235-0.945 2.8185-1.065 0.15-2.2947-1.095-3.7496-1.41-0.6-0.15-1.41 0.21-1.8747 0-1.095-0.375-0.93-1.6785-1.8747-2.3385-0.54-0.375-1.9498-0.84-2.8197-0.945h-1.41c-0.675-0.15-1.7697-0.15-2.3397-0.465-0.54-0.33-1.7398-0.93-1.8747-1.41-0.21-0.735 1.35-1.7085 1.41-2.337 0.03-0.465-0.345-0.675-0.465-1.41-0.075-0.435 0.09-1.11 0-1.41-0.15-0.51-1.065-0.93-1.8748-0.945-0.72 0-1.26 0.45-1.8747 0.465-0.885 0.015-2.6547-0.555-3.7496-0.465-0.66 0-1.26 0.42-1.8748 0.465-1.7397 0.15-2.8646-0.15-4.2144 0-0.99 0-2.8347 0.51-3.7496 0.945-0.465 0.21-0.81 0.645-1.41 0.945-0.27 0.15-0.585 0.315-0.945 0.465-0.57 0.255-1.335 0.795-1.8747 0.945-0.78 0.195-1.8598 0-3.2847 0-1.02 0-2.8046-0.21-2.8196-1.41-0.015-1.8435 3.4046-1.08 5.1594-1.41 0.66-0.15 1.095-0.945 1.8747-1.41 0.375-0.225 0.585-0.225 0.945-0.465 0.6-0.42 1.7847-1.395 1.8747-1.8735 0.09-0.45-0.525-1.08-0.465-1.41 0.075-0.42 0.855-0.87 1.41-1.41 0.84-0.825 1.305-1.7985 2.3397-2.3385 0.705-0.375 2.0248-0.36 2.3398-0.945 0.075-0.645-0.015-0.825 0-1.41 0.435-0.405 0.57-0.87 0.945-0.945 1.08-0.24 2.0247 0.525 3.2846 0.465 0.54 0 1.29-0.15 1.8747-0.465 0.495-0.33 0.93-0.675 1.41-0.945 0.525-0.27 0.765-0.885 1.41-0.945 1.5748-0.15 2.5647 1.8585 3.2846 2.8185 0.6 0.795 2.2948 1.7835 3.2847 2.3385 0.555 0.315 1.26 0.675 1.8747 0.945 1.305 0.585 3.7046 2.4735 3.7496 3.7485 0.03 0.63-0.57 0.81-0.465 1.41 0.99 0.165 1.8447-0.885 1.8747-1.8735 0.015-0.615-0.585-0.75-0.465-1.41 0.465-0.99 2.2197-0.15 2.8197-0.465-0.105-1.125-1.8597-1.29-2.8197-1.8735-0.51-0.315-0.87-0.72-1.41-0.945-0.78-0.315-1.7397-0.48-2.3397-0.945-0.57-0.435-0.855-1.2-1.41-1.8735-0.81-0.96-2.3697-1.095-1.8747-3.2835 0.24-0.33 0.555-1.035 0.945-0.945m-132.18 3.2835h1.41c0.51 0.015 1.2-0.27 1.41 0-0.33 1.32-3.1796 0.945-4.2144 0.465 0.06-0.495 0.75-0.405 1.41-0.465m-4.6944 2.34c0.345 0 0.585-0.15 0.945 0-0.93 0.78-2.1597 1.38-3.7496 1.8735-0.765 0.24-1.7397 0.375-1.8747-0.465-0.165-1.035 0.705-0.84 1.41-0.945 0.87-0.15 2.2498-0.435 3.2847-0.465m130.3 0c-0.645 0.21-0.99 1.6935 0 1.8735 0.465-0.27 0.585-1.02 0.465-1.8735-0.255-0.27-0.255 0-0.465 0m-0.465 2.8185c-0.315 0.15-0.6 0.15-0.945 0.465 0.015 1.125 0.225 1.8435 0 2.8185 0.645 1.23 2.0097 0.39 2.3397-0.465 0.39-2.0835-0.45-3.0735-1.41-2.8185m6.5692 5.622c0.735 1.2 2.1147 2.055 3.7496 2.3385 0.6-0.45 0.66-1.5735 0.945-2.3385-0.705 0.015-1.455 0-2.3397 0-0.885 0-1.8297-0.42-2.3397 0m-175.3 40.3c2.4597-0.15 3.1796 3.2385 5.1592 4.2135 0.495 0.255 1.23 0.33 1.8748 0.465 0.525 0.15 0.915 0.3 1.41 0.465 1.065 0.36 2.4297 0.15 3.2846 0.465 1.275 0.57 2.1897 3.1035 3.2846 3.7485 0.06 0.645-0.195 1.395 0 1.8735 0.525 0.705 1.485 0.96 2.3397 1.41 1.02 0.555 1.38 1.9035 2.3397 2.3385 0.33 0.15 0.885-0.15 1.41 0 1.32 0.405 1.6798 2.202 2.8197 1.872 0.75-0.21 0.825-1.17 0.945-1.872 0.495-0.54 1.11-1.395 1.8747-1.41 1.245 0 1.425 1.125 1.8748 2.3385 0.255 0.69 0.765 1.6185 0.945 2.3385 0.315 1.245 0.255 4.8735 0 5.622-0.315 0.915-1.5898 1.335-2.3397 2.34-0.36 0.465-0.66 1.065-0.945 1.41-0.48 0.6-1.035 0.855-1.41 1.41-0.21 0.315-0.27 0.99-0.465 1.41-0.6 1.275-1.44 2.22-0.945 3.7485 0.21 0.63 0.93 1.14 0.945 1.875 0 0.87-1.7247 1.395-1.8747 2.3385-0.105 0.705 0.72 1.89 0.945 2.8185 0.165 0.705 1.455 1.41 1.8747 1.875 0.705 0.795 1.23 1.8135 1.8748 2.8185 1.275 1.9485 2.0397 4.1985 3.2846 6.087 0.645 0.99 1.9047 1.785 2.3397 2.8185 0.225 0.525-0.21 1.41 0 1.875 0.72 1.6185 3.9896 3.4185 5.6242 4.2135 0.765 0.375 1.6498 0 2.3397 0.465 1.065 0.585 3.2097 2.3535 3.7496 3.2835 0.48 0.84 0.705 2.8935 0.945 4.212 0.315 1.755-0.075 3.2535 0 5.1585 0.06 1.035 0.45 1.7835 0.465 2.8185 0 0.36 0.015 1.05 0 1.41-0.03 1.245 0.105 2.4885 0 3.747-0.06 0.69-0.045 1.305 0 1.875 0.06 0.615 0.42 0.855 0.465 1.41 0.03 0.585-0.525 1.425-0.465 1.875 0.135 1.26 1.155 2.1285 1.41 3.2835 0.195 0.915 0.585 3.1185 0.465 4.2135-0.075 0.585-0.375 1.245-0.465 1.8735-0.06 0.495 0.075 0.93 0 1.41-0.09 0.705-0.51 1.215-0.465 1.8735 0.09 1.35 1.2 2.4 1.41 3.7485 0.075 0.45-0.015 0.975 0 1.41 0.015 0.405 0.345 0.57 0.465 0.945-3.9446-2.2485-7.6341-4.767-11.249-7.4955-3.4346-2.595-6.7641-5.4585-9.8388-8.442l-0.465-0.465c-3.1047-3.0585-6.2092-6.417-8.909-9.8355-1.5597-1.9785-3.2696-4.0035-4.6944-6.087-0.84-1.245-1.5598-2.4585-2.3397-3.7485-0.48-0.765-0.945-1.56-1.41-2.3385-1.335-2.295-2.5946-4.617-3.7496-7.0305-0.735-1.515-1.215-3.1185-1.8747-4.6935-1.5748-3.7185-3.0746-7.332-4.2144-11.246-0.81-2.7735-1.29-5.562-1.8748-8.4405-0.45-2.19-1.095-4.3335-1.41-6.567-0.165-1.215-0.345-2.52-0.465-3.7485-0.36-3.5235-0.465-7.152-0.465-10.779 0-4.5285 0.39-8.7555 0.945-13.119 0.015-0.15-0.015-0.315 0-0.465 0.945 0 2.2348-1.38 3.2847-1.41m40.315 11.246c0.96-0.435 1.26 1.755 0.465 1.875-0.75 0.15-1.2-1.53-0.465-1.875" stroke-width="15"/></g></svg>
