<?xml version="1.0" encoding="UTF-8" standalone="no"?>
<svg
   viewBox="0 0 512 512"
   version="1.1"
   id="svg260"
   width="512"
   height="512"
   xmlns="http://www.w3.org/2000/svg"
   xmlns:svg="http://www.w3.org/2000/svg">
  <defs
     id="defs3051">
    <style
       type="text/css"
       id="current-color-scheme">&#10;      .ColorScheme-Text {&#10;        color:#eff0f1;&#10;      }&#10;      </style>
    <clipPath
       clipPathUnits="userSpaceOnUse"
       id="clipPath2">
      <rect
         style="display:none;fill:#800000;fill-opacity:1;stroke:none;stroke-width:0.353595;stroke-dasharray:1.06079, 1.06079"
         id="rect2"
         width="1.75"
         height="1.75"
         x="2.625"
         y="2.625"
         d="m 2.625,2.625 h 1.75 v 1.75 h -1.75 z" />
      <path
         id="lpe_path-effect2"
         style="fill:#800000;fill-opacity:1;stroke:none;stroke-width:0.353595;stroke-dasharray:1.06079, 1.06079"
         class="powerclip"
         d="M -3,-3 H 10 V 10 H -3 Z m 5.625,5.625 v 1.75 h 1.75 v -1.75 z" />
    </clipPath>
    <clipPath
       clipPathUnits="userSpaceOnUse"
       id="clipPath2-9">
      <rect
         style="display:none;fill:#800000;fill-opacity:1;stroke:none;stroke-width:0.353595;stroke-dasharray:1.06079, 1.06079"
         id="rect2-1"
         width="1.75"
         height="1.75"
         x="2.625"
         y="2.625"
         d="m 2.625,2.625 h 1.75 v 1.75 h -1.75 z" />
      <path
         id="lpe_path-effect2-2"
         style="fill:#800000;fill-opacity:1;stroke:none;stroke-width:0.353595;stroke-dasharray:1.06079, 1.06079"
         class="powerclip"
         d="M -3,-3 H 10 V 10 H -3 Z m 5.625,5.625 v 1.75 h 1.75 v -1.75 z" />
    </clipPath>
    <clipPath
       clipPathUnits="userSpaceOnUse"
       id="clipath_lpe_path-effect2-7">
      <rect
         style="display:none;fill:#800000;fill-opacity:1;stroke:none;stroke-width:0.353595;stroke-dasharray:1.06079, 1.06079"
         id="rect3"
         width="1.75"
         height="1.75"
         x="2.625"
         y="2.625"
         d="m 2.625,2.625 h 1.75 v 1.75 h -1.75 z" />
      <path
         id="lpe_path-effect2-7"
         style="fill:#800000;fill-opacity:1;stroke:none;stroke-width:0.353595;stroke-dasharray:1.06079, 1.06079"
         class="powerclip"
         d="M -3,-3 H 10 V 10 H -3 Z m 5.625,5.625 v 1.75 h 1.75 v -1.75 z" />
    </clipPath>
    <clipPath
       clipPathUnits="userSpaceOnUse"
       id="clipath_lpe_path-effect2-7-3">
      <rect
         style="display:none;fill:#800000;fill-opacity:1;stroke:none;stroke-width:0.353595;stroke-dasharray:1.06079, 1.06079"
         id="rect3-6"
         width="1.75"
         height="1.75"
         x="2.625"
         y="2.625"
         d="m 2.625,2.625 h 1.75 v 1.75 h -1.75 z" />
      <path
         id="lpe_path-effect2-7-0"
         style="fill:#800000;fill-opacity:1;stroke:none;stroke-width:0.353595;stroke-dasharray:1.06079, 1.06079"
         class="powerclip"
         d="M -3,-3 H 10 V 10 H -3 Z m 5.625,5.625 v 1.75 h 1.75 v -1.75 z" />
    </clipPath>
    <clipPath
       clipPathUnits="userSpaceOnUse"
       id="clipath_lpe_path-effect2-7-6">
      <rect
         style="display:none;fill:#800000;fill-opacity:1;stroke:none;stroke-width:0.353595;stroke-dasharray:1.06079, 1.06079"
         id="rect4"
         width="1.75"
         height="1.75"
         x="2.625"
         y="2.625"
         d="m 2.625,2.625 h 1.75 v 1.75 h -1.75 z" />
      <path
         id="lpe_path-effect2-7-6"
         style="fill:#800000;fill-opacity:1;stroke:none;stroke-width:0.353595;stroke-dasharray:1.06079, 1.06079"
         class="powerclip"
         d="M -3,-3 H 10 V 10 H -3 Z m 5.625,5.625 v 1.75 h 1.75 v -1.75 z" />
    </clipPath>
    <clipPath
       clipPathUnits="userSpaceOnUse"
       id="clipPath2-1">
      <rect
         style="display:none;fill:#800000;fill-opacity:1;stroke:none;stroke-width:0.353595;stroke-dasharray:1.06079, 1.06079"
         id="rect2-8"
         width="1.75"
         height="1.75"
         x="2.625"
         y="2.625"
         d="m 2.625,2.625 h 1.75 v 1.75 h -1.75 z" />
      <path
         id="lpe_path-effect2-79"
         style="fill:#800000;fill-opacity:1;stroke:none;stroke-width:0.353595;stroke-dasharray:1.06079, 1.06079"
         class="powerclip"
         d="M -3,-3 H 10 V 10 H -3 Z m 5.625,5.625 v 1.75 h 1.75 v -1.75 z" />
    </clipPath>
    <clipPath
       clipPathUnits="userSpaceOnUse"
       id="clipath_lpe_path-effect2-7-0">
      <rect
         style="display:none;fill:#800000;fill-opacity:1;stroke:none;stroke-width:0.353595;stroke-dasharray:1.06079, 1.06079"
         id="rect3-2"
         width="1.75"
         height="1.75"
         x="2.625"
         y="2.625"
         d="m 2.625,2.625 h 1.75 v 1.75 h -1.75 z" />
      <path
         id="lpe_path-effect2-7-3"
         style="fill:#800000;fill-opacity:1;stroke:none;stroke-width:0.353595;stroke-dasharray:1.06079, 1.06079"
         class="powerclip"
         d="M -3,-3 H 10 V 10 H -3 Z m 5.625,5.625 v 1.75 h 1.75 v -1.75 z" />
    </clipPath>
    <clipPath
       clipPathUnits="userSpaceOnUse"
       id="clipath_lpe_path-effect2-7-6-5">
      <rect
         style="display:none;fill:#800000;fill-opacity:1;stroke:none;stroke-width:0.353595;stroke-dasharray:1.06079, 1.06079"
         id="rect4-9"
         width="1.75"
         height="1.75"
         x="2.625"
         y="2.625"
         d="m 2.625,2.625 h 1.75 v 1.75 h -1.75 z" />
      <path
         id="lpe_path-effect2-7-6-2"
         style="fill:#800000;fill-opacity:1;stroke:none;stroke-width:0.353595;stroke-dasharray:1.06079, 1.06079"
         class="powerclip"
         d="M -3,-3 H 10 V 10 H -3 Z m 5.625,5.625 v 1.75 h 1.75 v -1.75 z" />
    </clipPath>
    <clipPath
       clipPathUnits="userSpaceOnUse"
       id="clipath_lpe_path-effect2-7-7">
      <rect
         style="display:none;fill:#800000;fill-opacity:1;stroke:none;stroke-width:0.353595;stroke-dasharray:1.06079, 1.06079"
         id="rect5"
         width="1.75"
         height="1.75"
         x="2.625"
         y="2.625"
         d="m 2.625,2.625 h 1.75 v 1.75 h -1.75 z" />
      <path
         id="lpe_path-effect2-7-7"
         style="fill:#800000;fill-opacity:1;stroke:none;stroke-width:0.353595;stroke-dasharray:1.06079, 1.06079"
         class="powerclip"
         d="M -3,-3 H 10 V 10 H -3 Z m 5.625,5.625 v 1.75 h 1.75 v -1.75 z" />
    </clipPath>
    <clipPath
       clipPathUnits="userSpaceOnUse"
       id="clipPath2-1-1">
      <rect
         style="display:none;fill:#800000;fill-opacity:1;stroke:none;stroke-width:0.353595;stroke-dasharray:1.06079, 1.06079"
         id="rect2-8-2"
         width="1.75"
         height="1.75"
         x="2.625"
         y="2.625"
         d="m 2.625,2.625 h 1.75 v 1.75 h -1.75 z" />
      <path
         id="lpe_path-effect2-79-9"
         style="fill:#800000;fill-opacity:1;stroke:none;stroke-width:0.353595;stroke-dasharray:1.06079, 1.06079"
         class="powerclip"
         d="M -3,-3 H 10 V 10 H -3 Z m 5.625,5.625 v 1.75 h 1.75 v -1.75 z" />
    </clipPath>
    <clipPath
       clipPathUnits="userSpaceOnUse"
       id="clipath_lpe_path-effect2-7-7-1">
      <rect
         style="display:none;fill:#800000;fill-opacity:1;stroke:none;stroke-width:0.353595;stroke-dasharray:1.06079, 1.06079"
         id="rect5-9"
         width="1.75"
         height="1.75"
         x="2.625"
         y="2.625"
         d="m 2.625,2.625 h 1.75 v 1.75 h -1.75 z" />
      <path
         id="lpe_path-effect2-7-7-4"
         style="fill:#800000;fill-opacity:1;stroke:none;stroke-width:0.353595;stroke-dasharray:1.06079, 1.06079"
         class="powerclip"
         d="M -3,-3 H 10 V 10 H -3 Z m 5.625,5.625 v 1.75 h 1.75 v -1.75 z" />
    </clipPath>
    <clipPath
       clipPathUnits="userSpaceOnUse"
       id="clipath_lpe_path-effect2-7-6-5-8">
      <rect
         style="display:none;fill:#800000;fill-opacity:1;stroke:none;stroke-width:0.353595;stroke-dasharray:1.06079, 1.06079"
         id="rect4-9-4"
         width="1.75"
         height="1.75"
         x="2.625"
         y="2.625"
         d="m 2.625,2.625 h 1.75 v 1.75 h -1.75 z" />
      <path
         id="lpe_path-effect2-7-6-2-5"
         style="fill:#800000;fill-opacity:1;stroke:none;stroke-width:0.353595;stroke-dasharray:1.06079, 1.06079"
         class="powerclip"
         d="M -3,-3 H 10 V 10 H -3 Z m 5.625,5.625 v 1.75 h 1.75 v -1.75 z" />
    </clipPath>
    <clipPath
       clipPathUnits="userSpaceOnUse"
       id="clipath_lpe_path-effect2-2">
      <rect
         style="display:none;fill:#800000;fill-opacity:1;stroke:none;stroke-width:0.353595;stroke-dasharray:1.06079, 1.06079"
         id="rect1"
         width="1.75"
         height="1.75"
         x="2.625"
         y="2.625"
         d="m 2.625,2.625 h 1.75 v 1.75 h -1.75 z" />
      <path
         id="lpe_path-effect2-2-3"
         style="fill:#800000;fill-opacity:1;stroke:none;stroke-width:0.353595;stroke-dasharray:1.06079, 1.06079"
         class="powerclip"
         d="M -3,-3 H 10 V 10 H -3 Z m 5.625,5.625 v 1.75 h 1.75 v -1.75 z" />
    </clipPath>
    <clipPath
       clipPathUnits="userSpaceOnUse"
       id="clipath_lpe_path-effect2-7-7-7">
      <rect
         style="display:none;fill:#800000;fill-opacity:1;stroke:none;stroke-width:0.353595;stroke-dasharray:1.06079, 1.06079"
         id="rect6"
         width="1.75"
         height="1.75"
         x="2.625"
         y="2.625"
         d="m 2.625,2.625 h 1.75 v 1.75 h -1.75 z" />
      <path
         id="lpe_path-effect2-7-7-7"
         style="fill:#800000;fill-opacity:1;stroke:none;stroke-width:0.353595;stroke-dasharray:1.06079, 1.06079"
         class="powerclip"
         d="M -3,-3 H 10 V 10 H -3 Z m 5.625,5.625 v 1.75 h 1.75 v -1.75 z" />
    </clipPath>
    <clipPath
       clipPathUnits="userSpaceOnUse"
       id="clipath_lpe_path-effect2-7-6-2-0">
      <rect
         style="display:none;fill:#800000;fill-opacity:1;stroke:none;stroke-width:0.353595;stroke-dasharray:1.06079, 1.06079"
         id="rect7"
         width="1.75"
         height="1.75"
         x="2.625"
         y="2.625"
         d="m 2.625,2.625 h 1.75 v 1.75 h -1.75 z" />
      <path
         id="lpe_path-effect2-7-6-2-0"
         style="fill:#800000;fill-opacity:1;stroke:none;stroke-width:0.353595;stroke-dasharray:1.06079, 1.06079"
         class="powerclip"
         d="M -3,-3 H 10 V 10 H -3 Z m 5.625,5.625 v 1.75 h 1.75 v -1.75 z" />
    </clipPath>
  </defs>
  <rect
     style="fill:#000000;fill-opacity:0;stroke:#eff0f1;stroke-width:17.44;stroke-dasharray:none;stroke-opacity:1"
     id="rect8"
     width="78.545456"
     height="78.545464"
     x="72.727249"
     y="72.727249" />
  <rect
     style="fill:#000000;fill-opacity:0;stroke:#eff0f1;stroke-width:17.4545;stroke-dasharray:none;stroke-opacity:1"
     id="rect8-5"
     width="78.545471"
     height="78.545464"
     x="216.72723"
     y="72.727249" />
  <rect
     style="fill:#000000;fill-opacity:0;stroke:#eff0f1;stroke-width:17.4545;stroke-dasharray:none;stroke-opacity:1"
     id="rect8-5-5"
     width="78.545471"
     height="78.545464"
     x="360.72723"
     y="72.727249" />
  <rect
     style="fill:#000000;fill-opacity:0;stroke:#eff0f1;stroke-width:17.4545;stroke-dasharray:none;stroke-opacity:1"
     id="rect8-2"
     width="78.545456"
     height="78.545464"
     x="72.727249"
     y="216.72728" />
  <rect
     style="fill:#000000;fill-opacity:0;stroke:#eff0f1;stroke-width:17.4545;stroke-dasharray:none;stroke-opacity:1"
     id="rect8-5-9"
     width="78.545471"
     height="78.545464"
     x="216.72723"
     y="216.72728" />
  <rect
     style="fill:#000000;fill-opacity:0;stroke:#eff0f1;stroke-width:17.4545;stroke-dasharray:none;stroke-opacity:1"
     id="rect8-5-5-1"
     width="78.545471"
     height="78.545464"
     x="360.72729"
     y="216.72728" />
  <rect
     style="fill:#000000;fill-opacity:0;stroke:#eff0f1;stroke-width:17.4545;stroke-dasharray:none;stroke-opacity:1"
     id="rect8-2-2"
     width="78.545456"
     height="78.545464"
     x="72.727249"
     y="360.72729" />
  <rect
     style="fill:#000000;fill-opacity:0;stroke:#eff0f1;stroke-width:17.4545;stroke-dasharray:none;stroke-opacity:1"
     id="rect8-5-9-6"
     width="78.545471"
     height="78.545464"
     x="216.72723"
     y="360.72729" />
  <rect
     style="fill:#000000;fill-opacity:0;stroke:#eff0f1;stroke-width:17.4545;stroke-dasharray:none;stroke-opacity:1"
     id="rect8-5-5-1-1"
     width="78.545471"
     height="78.545464"
     x="360.72729"
     y="360.72729" />
</svg>
