<?xml version="1.0" encoding="UTF-8" standalone="no"?>
<svg
   viewBox="0 0 16 16"
   version="1.1"
   id="svg260"
   xmlns="http://www.w3.org/2000/svg"
   xmlns:svg="http://www.w3.org/2000/svg">
  <defs
     id="defs3051">
    <style
       type="text/css"
       id="current-color-scheme">&#10;      .ColorScheme-Text {&#10;        color:#eff0f1;&#10;      }&#10;      </style>
    <clipPath
       clipPathUnits="userSpaceOnUse"
       id="clipPath2">
      <rect
         style="display:none;fill:#800000;fill-opacity:1;stroke:none;stroke-width:0.353595;stroke-dasharray:1.06079, 1.06079"
         id="rect2"
         width="1.75"
         height="1.75"
         x="2.625"
         y="2.625"
         d="m 2.625,2.625 h 1.75 v 1.75 h -1.75 z" />
      <path
         id="lpe_path-effect2"
         style="fill:#800000;fill-opacity:1;stroke:none;stroke-width:0.353595;stroke-dasharray:1.06079, 1.06079"
         class="powerclip"
         d="M -3,-3 H 10 V 10 H -3 Z m 5.625,5.625 v 1.75 h 1.75 v -1.75 z" />
    </clipPath>
    <clipPath
       clipPathUnits="userSpaceOnUse"
       id="clipPath2-9">
      <rect
         style="display:none;fill:#800000;fill-opacity:1;stroke:none;stroke-width:0.353595;stroke-dasharray:1.06079, 1.06079"
         id="rect2-1"
         width="1.75"
         height="1.75"
         x="2.625"
         y="2.625"
         d="m 2.625,2.625 h 1.75 v 1.75 h -1.75 z" />
      <path
         id="lpe_path-effect2-2"
         style="fill:#800000;fill-opacity:1;stroke:none;stroke-width:0.353595;stroke-dasharray:1.06079, 1.06079"
         class="powerclip"
         d="M -3,-3 H 10 V 10 H -3 Z m 5.625,5.625 v 1.75 h 1.75 v -1.75 z" />
    </clipPath>
    <clipPath
       clipPathUnits="userSpaceOnUse"
       id="clipath_lpe_path-effect2-7">
      <rect
         style="display:none;fill:#800000;fill-opacity:1;stroke:none;stroke-width:0.353595;stroke-dasharray:1.06079, 1.06079"
         id="rect3"
         width="1.75"
         height="1.75"
         x="2.625"
         y="2.625"
         d="m 2.625,2.625 h 1.75 v 1.75 h -1.75 z" />
      <path
         id="lpe_path-effect2-7"
         style="fill:#800000;fill-opacity:1;stroke:none;stroke-width:0.353595;stroke-dasharray:1.06079, 1.06079"
         class="powerclip"
         d="M -3,-3 H 10 V 10 H -3 Z m 5.625,5.625 v 1.75 h 1.75 v -1.75 z" />
    </clipPath>
    <clipPath
       clipPathUnits="userSpaceOnUse"
       id="clipath_lpe_path-effect2-7-3">
      <rect
         style="display:none;fill:#800000;fill-opacity:1;stroke:none;stroke-width:0.353595;stroke-dasharray:1.06079, 1.06079"
         id="rect3-6"
         width="1.75"
         height="1.75"
         x="2.625"
         y="2.625"
         d="m 2.625,2.625 h 1.75 v 1.75 h -1.75 z" />
      <path
         id="lpe_path-effect2-7-0"
         style="fill:#800000;fill-opacity:1;stroke:none;stroke-width:0.353595;stroke-dasharray:1.06079, 1.06079"
         class="powerclip"
         d="M -3,-3 H 10 V 10 H -3 Z m 5.625,5.625 v 1.75 h 1.75 v -1.75 z" />
    </clipPath>
    <clipPath
       clipPathUnits="userSpaceOnUse"
       id="clipath_lpe_path-effect2-7-6">
      <rect
         style="display:none;fill:#800000;fill-opacity:1;stroke:none;stroke-width:0.353595;stroke-dasharray:1.06079, 1.06079"
         id="rect4"
         width="1.75"
         height="1.75"
         x="2.625"
         y="2.625"
         d="m 2.625,2.625 h 1.75 v 1.75 h -1.75 z" />
      <path
         id="lpe_path-effect2-7-6"
         style="fill:#800000;fill-opacity:1;stroke:none;stroke-width:0.353595;stroke-dasharray:1.06079, 1.06079"
         class="powerclip"
         d="M -3,-3 H 10 V 10 H -3 Z m 5.625,5.625 v 1.75 h 1.75 v -1.75 z" />
    </clipPath>
    <clipPath
       clipPathUnits="userSpaceOnUse"
       id="clipPath2-1">
      <rect
         style="display:none;fill:#800000;fill-opacity:1;stroke:none;stroke-width:0.353595;stroke-dasharray:1.06079, 1.06079"
         id="rect2-8"
         width="1.75"
         height="1.75"
         x="2.625"
         y="2.625"
         d="m 2.625,2.625 h 1.75 v 1.75 h -1.75 z" />
      <path
         id="lpe_path-effect2-79"
         style="fill:#800000;fill-opacity:1;stroke:none;stroke-width:0.353595;stroke-dasharray:1.06079, 1.06079"
         class="powerclip"
         d="M -3,-3 H 10 V 10 H -3 Z m 5.625,5.625 v 1.75 h 1.75 v -1.75 z" />
    </clipPath>
    <clipPath
       clipPathUnits="userSpaceOnUse"
       id="clipath_lpe_path-effect2-7-0">
      <rect
         style="display:none;fill:#800000;fill-opacity:1;stroke:none;stroke-width:0.353595;stroke-dasharray:1.06079, 1.06079"
         id="rect3-2"
         width="1.75"
         height="1.75"
         x="2.625"
         y="2.625"
         d="m 2.625,2.625 h 1.75 v 1.75 h -1.75 z" />
      <path
         id="lpe_path-effect2-7-3"
         style="fill:#800000;fill-opacity:1;stroke:none;stroke-width:0.353595;stroke-dasharray:1.06079, 1.06079"
         class="powerclip"
         d="M -3,-3 H 10 V 10 H -3 Z m 5.625,5.625 v 1.75 h 1.75 v -1.75 z" />
    </clipPath>
    <clipPath
       clipPathUnits="userSpaceOnUse"
       id="clipath_lpe_path-effect2-7-6-5">
      <rect
         style="display:none;fill:#800000;fill-opacity:1;stroke:none;stroke-width:0.353595;stroke-dasharray:1.06079, 1.06079"
         id="rect4-9"
         width="1.75"
         height="1.75"
         x="2.625"
         y="2.625"
         d="m 2.625,2.625 h 1.75 v 1.75 h -1.75 z" />
      <path
         id="lpe_path-effect2-7-6-2"
         style="fill:#800000;fill-opacity:1;stroke:none;stroke-width:0.353595;stroke-dasharray:1.06079, 1.06079"
         class="powerclip"
         d="M -3,-3 H 10 V 10 H -3 Z m 5.625,5.625 v 1.75 h 1.75 v -1.75 z" />
    </clipPath>
    <clipPath
       clipPathUnits="userSpaceOnUse"
       id="clipath_lpe_path-effect2-7-7">
      <rect
         style="display:none;fill:#800000;fill-opacity:1;stroke:none;stroke-width:0.353595;stroke-dasharray:1.06079, 1.06079"
         id="rect5"
         width="1.75"
         height="1.75"
         x="2.625"
         y="2.625"
         d="m 2.625,2.625 h 1.75 v 1.75 h -1.75 z" />
      <path
         id="lpe_path-effect2-7-7"
         style="fill:#800000;fill-opacity:1;stroke:none;stroke-width:0.353595;stroke-dasharray:1.06079, 1.06079"
         class="powerclip"
         d="M -3,-3 H 10 V 10 H -3 Z m 5.625,5.625 v 1.75 h 1.75 v -1.75 z" />
    </clipPath>
    <clipPath
       clipPathUnits="userSpaceOnUse"
       id="clipPath2-1-1">
      <rect
         style="display:none;fill:#800000;fill-opacity:1;stroke:none;stroke-width:0.353595;stroke-dasharray:1.06079, 1.06079"
         id="rect2-8-2"
         width="1.75"
         height="1.75"
         x="2.625"
         y="2.625"
         d="m 2.625,2.625 h 1.75 v 1.75 h -1.75 z" />
      <path
         id="lpe_path-effect2-79-9"
         style="fill:#800000;fill-opacity:1;stroke:none;stroke-width:0.353595;stroke-dasharray:1.06079, 1.06079"
         class="powerclip"
         d="M -3,-3 H 10 V 10 H -3 Z m 5.625,5.625 v 1.75 h 1.75 v -1.75 z" />
    </clipPath>
    <clipPath
       clipPathUnits="userSpaceOnUse"
       id="clipath_lpe_path-effect2-7-7-1">
      <rect
         style="display:none;fill:#800000;fill-opacity:1;stroke:none;stroke-width:0.353595;stroke-dasharray:1.06079, 1.06079"
         id="rect5-9"
         width="1.75"
         height="1.75"
         x="2.625"
         y="2.625"
         d="m 2.625,2.625 h 1.75 v 1.75 h -1.75 z" />
      <path
         id="lpe_path-effect2-7-7-4"
         style="fill:#800000;fill-opacity:1;stroke:none;stroke-width:0.353595;stroke-dasharray:1.06079, 1.06079"
         class="powerclip"
         d="M -3,-3 H 10 V 10 H -3 Z m 5.625,5.625 v 1.75 h 1.75 v -1.75 z" />
    </clipPath>
    <clipPath
       clipPathUnits="userSpaceOnUse"
       id="clipath_lpe_path-effect2-7-6-5-8">
      <rect
         style="display:none;fill:#800000;fill-opacity:1;stroke:none;stroke-width:0.353595;stroke-dasharray:1.06079, 1.06079"
         id="rect4-9-4"
         width="1.75"
         height="1.75"
         x="2.625"
         y="2.625"
         d="m 2.625,2.625 h 1.75 v 1.75 h -1.75 z" />
      <path
         id="lpe_path-effect2-7-6-2-5"
         style="fill:#800000;fill-opacity:1;stroke:none;stroke-width:0.353595;stroke-dasharray:1.06079, 1.06079"
         class="powerclip"
         d="M -3,-3 H 10 V 10 H -3 Z m 5.625,5.625 v 1.75 h 1.75 v -1.75 z" />
    </clipPath>
    <clipPath
       clipPathUnits="userSpaceOnUse"
       id="clipath_lpe_path-effect2-2">
      <rect
         style="display:none;fill:#800000;fill-opacity:1;stroke:none;stroke-width:0.353595;stroke-dasharray:1.06079, 1.06079"
         id="rect1"
         width="1.75"
         height="1.75"
         x="2.625"
         y="2.625"
         d="m 2.625,2.625 h 1.75 v 1.75 h -1.75 z" />
      <path
         id="lpe_path-effect2-2-3"
         style="fill:#800000;fill-opacity:1;stroke:none;stroke-width:0.353595;stroke-dasharray:1.06079, 1.06079"
         class="powerclip"
         d="M -3,-3 H 10 V 10 H -3 Z m 5.625,5.625 v 1.75 h 1.75 v -1.75 z" />
    </clipPath>
    <clipPath
       clipPathUnits="userSpaceOnUse"
       id="clipath_lpe_path-effect2-7-7-7">
      <rect
         style="display:none;fill:#800000;fill-opacity:1;stroke:none;stroke-width:0.353595;stroke-dasharray:1.06079, 1.06079"
         id="rect6"
         width="1.75"
         height="1.75"
         x="2.625"
         y="2.625"
         d="m 2.625,2.625 h 1.75 v 1.75 h -1.75 z" />
      <path
         id="lpe_path-effect2-7-7-7"
         style="fill:#800000;fill-opacity:1;stroke:none;stroke-width:0.353595;stroke-dasharray:1.06079, 1.06079"
         class="powerclip"
         d="M -3,-3 H 10 V 10 H -3 Z m 5.625,5.625 v 1.75 h 1.75 v -1.75 z" />
    </clipPath>
    <clipPath
       clipPathUnits="userSpaceOnUse"
       id="clipath_lpe_path-effect2-7-6-2-0">
      <rect
         style="display:none;fill:#800000;fill-opacity:1;stroke:none;stroke-width:0.353595;stroke-dasharray:1.06079, 1.06079"
         id="rect7"
         width="1.75"
         height="1.75"
         x="2.625"
         y="2.625"
         d="m 2.625,2.625 h 1.75 v 1.75 h -1.75 z" />
      <path
         id="lpe_path-effect2-7-6-2-0"
         style="fill:#800000;fill-opacity:1;stroke:none;stroke-width:0.353595;stroke-dasharray:1.06079, 1.06079"
         class="powerclip"
         d="M -3,-3 H 10 V 10 H -3 Z m 5.625,5.625 v 1.75 h 1.75 v -1.75 z" />
    </clipPath>
  </defs>
  <g
     id="g7">
    <path
       style="fill:#eff0f1;fill-opacity:1;stroke:none;stroke-width:0.60616;stroke-dasharray:1.81849, 1.81849"
       id="rect792"
       width="3"
       height="3"
       x="2"
       y="2"
       clip-path="url(#clipPath2)"
       d="M 2,2 H 5 V 5 H 2 Z" />
    <path
       style="fill:#eff0f1;fill-opacity:1;stroke:none;stroke-width:0.60616;stroke-dasharray:1.81849, 1.81849"
       id="rect792-9"
       width="3"
       height="3"
       x="2"
       y="2"
       clip-path="url(#clipath_lpe_path-effect2-7)"
       d="M 2,2 H 5 V 5 H 2 Z"
       transform="translate(4.5)" />
    <path
       style="fill:#eff0f1;fill-opacity:1;stroke:none;stroke-width:0.60616;stroke-dasharray:1.81849, 1.81849"
       id="rect792-9-6"
       width="3"
       height="3"
       x="2"
       y="2"
       clip-path="url(#clipath_lpe_path-effect2-7-6)"
       d="M 2,2 H 5 V 5 H 2 Z"
       transform="translate(9)" />
    <path
       style="fill:#eff0f1;fill-opacity:1;stroke:none;stroke-width:0.60616;stroke-dasharray:1.81849, 1.81849"
       id="rect792-97"
       width="3"
       height="3"
       x="2"
       y="2"
       clip-path="url(#clipPath2-1)"
       d="M 2,2 H 5 V 5 H 2 Z"
       transform="translate(0,4.5)" />
    <path
       style="fill:#eff0f1;fill-opacity:1;stroke:none;stroke-width:0.60616;stroke-dasharray:1.81849, 1.81849"
       id="rect792-9-3"
       width="3"
       height="3"
       x="2"
       y="2"
       clip-path="url(#clipath_lpe_path-effect2-7-7)"
       d="M 2,2 H 5 V 5 H 2 Z"
       transform="translate(4.5,4.5)" />
    <path
       style="fill:#eff0f1;fill-opacity:1;stroke:none;stroke-width:0.60616;stroke-dasharray:1.81849, 1.81849"
       id="rect792-9-6-6"
       width="3"
       height="3"
       x="2"
       y="2"
       clip-path="url(#clipath_lpe_path-effect2-7-6-5)"
       d="M 2,2 H 5 V 5 H 2 Z"
       transform="translate(9,4.5)" />
    <path
       style="fill:#eff0f1;fill-opacity:1;stroke:none;stroke-width:0.60616;stroke-dasharray:1.81849, 1.81849"
       id="rect792-97-1"
       width="3"
       height="3"
       x="2"
       y="2"
       clip-path="url(#clipath_lpe_path-effect2-2)"
       d="M 2,2 H 5 V 5 H 2 Z"
       transform="translate(0,9)" />
    <path
       style="fill:#eff0f1;fill-opacity:1;stroke:none;stroke-width:0.60616;stroke-dasharray:1.81849, 1.81849"
       id="rect792-9-3-0"
       width="3"
       height="3"
       x="2"
       y="2"
       clip-path="url(#clipath_lpe_path-effect2-7-7-7)"
       d="M 2,2 H 5 V 5 H 2 Z"
       transform="translate(4.5,9)" />
    <path
       style="fill:#eff0f1;fill-opacity:1;stroke:none;stroke-width:0.60616;stroke-dasharray:1.81849, 1.81849"
       id="rect792-9-6-6-6"
       width="3"
       height="3"
       x="2"
       y="2"
       clip-path="url(#clipath_lpe_path-effect2-7-6-2-0)"
       d="M 2,2 H 5 V 5 H 2 Z"
       transform="translate(9,9)" />
  </g>
</svg>
